<?xml version="1.0" encoding="UTF-8" standalone="no"?>
<!-- Created with Inkscape (http://www.inkscape.org/) -->

<svg
   width="210mm"
   height="297mm"
   viewBox="0 0 210 297"
   version="1.1"
   id="svg5"
   inkscape:version="1.1 (c4e8f9ed74, 2021-05-24)"
   sodipodi:docname="futurito.svg"
   xmlns:inkscape="http://www.inkscape.org/namespaces/inkscape"
   xmlns:sodipodi="http://sodipodi.sourceforge.net/DTD/sodipodi-0.dtd"
   xmlns:xlink="http://www.w3.org/1999/xlink"
   xmlns="http://www.w3.org/2000/svg"
   xmlns:svg="http://www.w3.org/2000/svg">
  <sodipodi:namedview
     id="namedview7"
     pagecolor="#ffffff"
     bordercolor="#666666"
     borderopacity="1.0"
     inkscape:pageshadow="2"
     inkscape:pageopacity="0.0"
     inkscape:pagecheckerboard="0"
     inkscape:document-units="mm"
     showgrid="false"
     inkscape:zoom="0.8315052"
     inkscape:cx="197.834"
     inkscape:cy="444.97617"
     inkscape:window-width="1920"
     inkscape:window-height="1006"
     inkscape:window-x="0"
     inkscape:window-y="0"
     inkscape:window-maximized="1"
     inkscape:current-layer="layer1" />
  <defs
     id="defs2">
    <linearGradient
       inkscape:collect="always"
       id="linearGradient10043">
      <stop
         style="stop-color:#ff0000;stop-opacity:1"
         offset="0"
         id="stop10039" />
      <stop
         style="stop-color:#ff0000;stop-opacity:0;"
         offset="1"
         id="stop10041" />
    </linearGradient>
    <linearGradient
       inkscape:collect="always"
       id="linearGradient8867">
      <stop
         style="stop-color:#ff0000;stop-opacity:1;"
         offset="0"
         id="stop8863" />
      <stop
         style="stop-color:#ff0000;stop-opacity:0;"
         offset="1"
         id="stop8865" />
    </linearGradient>
    <linearGradient
       id="linearGradient5780"
       inkscape:swatch="solid">
      <stop
         style="stop-color:#ff0000;stop-opacity:1;"
         offset="0"
         id="stop5778" />
    </linearGradient>
    <linearGradient
       inkscape:collect="always"
       xlink:href="#linearGradient10043"
       id="linearGradient8869"
       x1="151.39372"
       y1="127.07542"
       x2="202.46385"
       y2="105.82342"
       gradientUnits="userSpaceOnUse" />
    <radialGradient
       inkscape:collect="always"
       xlink:href="#linearGradient8867"
       id="radialGradient9653"
       cx="119.36626"
       cy="104.08678"
       fx="119.36626"
       fy="104.08678"
       r="83.097595"
       gradientTransform="matrix(1,0,0,0.89187191,0,12.991344)"
       gradientUnits="userSpaceOnUse" />
  </defs>
  <g
     inkscape:label="Capa 1"
     inkscape:groupmode="layer"
     id="layer1">
    <ellipse
       style="fill:url(#linearGradient8869);fill-rule:evenodd;stroke-width:0.264583;fill-opacity:1;stroke:url(#radialGradient9653)"
       id="path31"
       cx="101.00493"
       cy="120.14773"
       rx="82.965302"
       ry="73.980118" />
    <g
       id="g646"
       transform="matrix(1,0,0,1.4542036,0.71025235,-73.571133)">
      <path
         style="fill:#000000;stroke-width:0.264583"
         id="path414"
         sodipodi:type="arc"
         sodipodi:cx="83.88131"
         sodipodi:cy="110.69158"
         sodipodi:rx="53.888988"
         sodipodi:ry="30.542379"
         sodipodi:start="0"
         sodipodi:end="3.1400031"
         sodipodi:open="true"
         sodipodi:arc-type="arc"
         d="M 137.7703,110.69158 A 53.888988,30.542379 0 0 1 83.924139,141.23395 53.888988,30.542379 0 0 1 29.992389,110.74013" />
      <ellipse
         style="fill:#ff0000;stroke-width:0.32151"
         id="path562"
         cx="83.659492"
         cy="113.84418"
         rx="56.883545"
         ry="11.014875" />
    </g>
    <g
       id="g2952"
       transform="matrix(0.17048672,0,0,0.13588028,-120.00496,86.368149)"
       style="fill:#ffffff">
      <path
         d="m 1329.3285,-174.03685 c -56.3,0 -101.2,32.4 -126.7,81.899998 -50.1,97.4999996 -85,121.6 -129.5,121.6 -34.9,0 -63.3,-28.60000039 -63.3,-63.7 0,-35.1 28.4,-63.7 63.3,-63.7 15.8,0 31.1,5.9 42.7,16.7 15.5,14.2 39.5,13.3 53.8,-2.2 14.2,-15.5 13.3,-39.499998 -2.2,-53.799998 -25.7,-23.7 -59.3,-36.9 -94.3,-36.8 -77.00001,0 -139.50001,62.6 -139.50001,139.699998 0,77.1 62.5,139.800002 139.40001,139.800002 58.8,0 98.7,-25.400002 135.5,-70.200002 24.1,41.8 69.1,70.200002 120.7,70.200002 76.8,0 139.4,-62.700002 139.4,-139.800002 0,-77.099998 -62.5,-139.699998 -139.3,-139.699998 m 0,203.399998 c -34.9,0 -63.3,-28.60000039 -63.3,-63.7 0,-8 1.6,-15.6 4.2,-22.6 3.5,-6 7.2,-12.2 10.8,-18.5 11.6,-13.8 28.9,-22.6 48.3,-22.6 34.9,0 63.3,28.6 63.3,63.7 -0.1,35.19999961 -28.4,63.7 -63.3,63.7"
         fill="#e8473e"
         id="path2940"
         sodipodi:nodetypes="ccsssccccsscssccsccscc"
         style="fill:#ffffff" />
    </g>
    <ellipse
       style="fill:#000000;stroke-width:0.264583"
       id="path192"
       cx="59.402676"
       cy="85.044342"
       rx="3.7087047"
       ry="3.5062327" />
    <ellipse
       style="fill:#ffffff;stroke-width:0.166138"
       id="path192-6"
       cx="58.866005"
       cy="85.75312"
       rx="2.3114998"
       ry="2.2181172" />
    <ellipse
       style="fill:#000000;stroke-width:0.264583"
       id="path192-3"
       cx="104.35175"
       cy="85.780884"
       rx="3.7087047"
       ry="3.5062327" />
    <ellipse
       style="fill:#ffffff;stroke-width:0.166138"
       id="path192-6-7"
       cx="103.09617"
       cy="86.549873"
       rx="2.3114998"
       ry="2.2181172" />
    <g
       id="g713"
       transform="matrix(0.04846562,0,0,0.05141096,28.382829,135.42925)"
       style="fill:#ffffff">
      <path
         d="m 1017.8,126.3 c 21.1,0 38.5,17.4 38.5,38.5 0,21.1 -17.5,38.6 -38.5,38.6 H 960 v 155 C 960,379.5 942.6,397 921.5,397 900.4,397 883,379.5 883,358.4 V 115.6 C 882.9,51.8 934.7,0 998.5,0 h 19.3 c 21.1,0 38.5,17.5 38.5,38.5 0,21.1 -17.4,38.5 -38.5,38.5 h -19.3 c -21.1,0 -38.6,17.5 -38.6,38.5 v 10.7 z m 1238.3,271.1 c -76.9,0 -139.4,-62.8 -139.4,-139.8 0,-77.1 62.5,-139.8 139.4,-139.8 76.9,0 139.4,62.7 139.4,139.8 0,77 -62.6,139.8 -139.4,139.8 m 0,-203.5 c -34.9,0 -63.3,28.5 -63.3,63.7 0,35.1 28.4,63.7 63.3,63.7 34.9,0 63.3,-28.6 63.3,-63.7 -0.1,-35.2 -28.4,-63.7 -63.3,-63.7 m -278.9,203.5 c -21,0 -38.1,-17.1 -38.1,-38.1 V 255 c 0,-77.1 62.5,-139.8 139.4,-139.8 21,0 38.1,17 38.1,38 0,21 -17,38.1 -38,38.1 -34.9,0 -63.2,28.6 -63.2,63.7 v 104.3 c -0.2,21 -17.2,38.1 -38.2,38.1 m -216.2,0 c -76.9,0 -139.4,-62.8 -139.4,-139.8 V 153.2 c 0,-21 17,-38 38,-38 21,0 38,17 38,37.9 v 0.1 104.4 c 0,35.1 28.4,63.7 63.3,63.7 34.9,0 63.3,-28.6 63.3,-63.7 V 153.2 c 0,-21 17,-38 38.1,-38 21,0 38,17 38,38 v 104.4 c 0.1,77 -62.5,139.8 -139.3,139.8 m -529,0 c -76.9,0 -139.4,-62.8 -139.4,-139.8 V 153.2 c 0,-21 17,-38 38,-38 21,0 38,17 38.1,37.9 v 104.4 c 0,35.1 28.4,63.7 63.3,63.7 34.9,0 63.2,-28.6 63.2,-63.7 V 153.2 c 0,-21 17.1,-38 38.1,-38 21,0 38,17 38,38 v 104.4 c 0.1,77 -62.4,139.8 -139.3,139.8 m -427.1,0.4 c -21,0 -38,-17 -38.1,-38 0,0 0,0 0,-0.1 V 255.5 c 0,-35.1 -28.4,-63.7 -63.2,-63.7 -34.9,0 -63.3,28.6 -63.3,63.7 v 104.3 c 0,21 -17,38 -38,38 -21,0 -38.1,-17 -38.1,-38 0,0 0,0 0,-0.1 V 255.5 c 0,-77.1 62.5,-139.8 139.4,-139.8 76.9,0 139.4,62.7 139.4,139.8 v 104.3 c -0.1,21 -17.1,38 -38.1,38 m 739.3,-203.2 c 21.1,0 38.5,-17.5 38.5,-38.6 0,-21.1 -17.4,-38.5 -38.5,-38.5 h -57.8 v -79 c 0,-21.1 -17.5,-38.5 -38.5,-38.5 -21.1,0 -38.5,17.5 -38.5,38.5 v 242.9 c 0,63.8 51.7,115.6 115.6,115.6 h 19.3 c 21.1,0 38.5,-17.5 38.5,-38.6 0,-21.1 -17.4,-38.5 -38.5,-38.5 H 1525 c -21.1,0 -38.5,-17.4 -38.5,-38.5 V 194.6 Z M 395.7,118.3 c -56.3,0 -101.2,32.4 -126.7,81.9 -50.1,97.5 -85,121.6 -129.5,121.6 -34.9,0 -63.3,-28.6 -63.3,-63.7 0,-35.1 28.4,-63.7 63.3,-63.7 15.8,0 31.1,5.9 42.7,16.7 15.5,14.2 39.5,13.3 53.8,-2.2 14.2,-15.5 13.3,-39.5 -2.2,-53.8 C 208.1,131.4 174.5,118.2 139.5,118.3 62.5,118.3 0,180.9 0,258 c 0,77.1 62.5,139.8 139.4,139.8 58.8,0 98.7,-25.4 135.5,-70.2 24.1,41.8 69.1,70.2 120.7,70.2 C 472.4,397.8 535,335.1 535,258 535,180.9 472.5,118.3 395.7,118.3 m 0,203.4 c -34.9,0 -63.3,-28.6 -63.3,-63.7 0,-8 1.6,-15.6 4.2,-22.6 3.5,-6 7.2,-12.2 10.8,-18.5 11.6,-13.8 28.9,-22.6 48.3,-22.6 34.9,0 63.3,28.6 63.3,63.7 -0.1,35.2 -28.4,63.7 -63.3,63.7 M 2462.8,185.2 c -18.6,0.1 -33.7,-14.9 -33.8,-33.5 0,-0.1 0,-0.2 0,-0.3 0,-18.5 15,-34 33.9,-34 18.6,-0.1 33.7,14.9 33.8,33.5 v 0.3 c 0,18.6 -15,34 -33.9,34 m 0.1,-64.4 c -17.3,0 -30.4,13.8 -30.4,30.6 0,16.9 13,30.4 30.2,30.4 17.3,0 30.4,-13.8 30.4,-30.6 0,-16.8 -12.9,-30.4 -30.2,-30.4 m 7.5,33.9 9.5,13.4 h -8.1 l -8.6,-12.2 h -7.4 v 12.2 h -6.7 v -35.4 h 15.8 c 8.2,0 13.6,4.2 13.6,11.3 0.2,5.7 -3.2,9.3 -8.1,10.7 m -5.7,-16 h -8.8 v 11.2 h 8.8 c 4.4,0 7,-2.1 7,-5.6 0,-3.6 -2.6,-5.6 -7,-5.6"
         fill="#e8473e"
         id="path701"
         style="fill:#ffffff" />
      <path
         d="m 1605.2,562.2 c -12.7,0 -21.3,-4.1 -26.8,-7.8 l 5.7,-9.8 c 4,3 11.5,6.8 20.7,6.8 8.1,0 17.7,-3.9 17.7,-13.1 0,-15.4 -22.6,-18.5 -34,-31.1 -4,-4.2 -6.6,-9.7 -6.6,-17 0,-13.4 10.3,-24.1 28.2,-24.1 10,0 17.1,2.5 21.7,4.7 l -0.1,12.6 c -5.7,-3.6 -13.2,-6.3 -20.9,-6.3 -8.7,0 -16,3.6 -16,11.9 0,19.7 41.3,19.6 41.3,48 -0.2,15.3 -13.6,25.2 -30.9,25.2 m 55.8,-82.6 c 8.4,-8.4 20.1,-13.4 33.6,-13.4 14.5,0 26.9,5.4 35.2,14.7 7.5,8.5 11.8,20.1 11.8,33.4 0,14.4 -5.1,26.8 -13.8,35.4 -8.3,8.1 -19.8,12.7 -33.2,12.7 -13,0 -24,-4.1 -32.2,-11.7 -9.3,-8.5 -14.7,-21.2 -14.7,-36 0.1,-14.3 4.9,-26.4 13.3,-35.1 m 33.7,-2 c -20.3,0 -33.4,14.3 -33.4,36.8 0,22.5 13.1,36.8 33.4,36.8 20.2,0 33.4,-14.3 33.4,-36.8 -0.1,-21.4 -12.1,-36.8 -33.4,-36.8 m 142.2,83.2 V 497 c 0,-3.5 0,-5.6 0.3,-10 h -0.2 c -1.5,3.9 -3.6,7 -5.1,9.4 l -23.2,37 h -7.4 l -24.9,-37.2 c -1.5,-2.5 -3.2,-5 -5.1,-9.3 h -0.3 c 0.6,4.4 0.6,6.5 0.6,9.8 v 64 H 1759 v -93.9 h 12.4 l 28.5,42.3 c 2.4,3.9 4,6.3 5.2,8.8 h 0.3 c 1.2,-2.4 2.3,-5 4.9,-9 l 26.8,-42.2 h 12.7 v 93.9 z m 43.2,-81.2 c 8.4,-8.4 20.2,-13.4 33.7,-13.4 14.5,0 26.9,5.4 35.2,14.7 7.5,8.5 11.8,20.1 11.8,33.4 0,14.4 -5.1,26.8 -13.8,35.4 -8.4,8.1 -19.8,12.7 -33.2,12.7 -13,0 -24,-4.1 -32.2,-11.7 -9.2,-8.5 -14.7,-21.2 -14.7,-36 0,-14.3 4.8,-26.4 13.2,-35.1 m 33.7,-2 c -20.3,0 -33.3,14.3 -33.3,36.8 0,22.5 13.1,36.8 33.3,36.8 20.2,0 33.3,-14.3 33.3,-36.8 0,-21.4 -12,-36.8 -33.3,-36.8 m 85.6,84.6 c -12.7,0 -21.3,-4.1 -26.8,-7.8 l 5.7,-9.8 c 4,3 11.6,6.8 20.6,6.8 8.1,0 17.7,-3.9 17.7,-13.1 0,-15.4 -22.6,-18.5 -34.1,-31.1 -4,-4.2 -6.6,-9.7 -6.6,-17 0,-13.4 10.3,-24.1 28.2,-24.1 9.9,0 17.1,2.5 21.6,4.7 l -0.1,12.6 c -5.7,-3.6 -13.3,-6.3 -21,-6.3 -8.7,0 -16,3.6 -16,11.9 0,19.7 41.3,19.6 41.3,48 0.3,15.3 -13.1,25.2 -30.5,25.2 m 123.5,0 c -28.5,0 -45.8,-20.2 -45.8,-47.3 0,-27.2 19.4,-48.8 48.2,-48.8 10.9,0 19.3,2.6 24.1,5.4 l -0.2,12.5 c -7.1,-4.4 -14,-7 -24.1,-7 -21.3,0 -34.4,16.4 -34.4,37 0,21.3 12.7,36.7 33.8,36.7 8.1,0 15.8,-2.4 22.4,-5.9 l 3.7,9.8 c -9.2,5.4 -18.6,7.6 -27.7,7.6 m 84.1,0 c -28.5,0 -45.8,-20.2 -45.8,-47.3 0,-27.2 19.4,-48.8 48.2,-48.8 10.8,0 19.3,2.6 24.1,5.4 l -0.2,12.5 c -7.1,-4.4 -13.9,-7 -24,-7 -21.3,0 -34.4,16.4 -34.4,37 0,21.3 12.7,36.7 33.8,36.7 8.1,0 15.8,-2.4 22.3,-5.9 l 3.7,9.8 c -9.2,5.4 -18.6,7.6 -27.7,7.6 m 84.4,-1.4 v -41.1 c 0,-8.1 -1.4,-16.5 -11.5,-16.5 -7.4,0 -14.1,5 -19.2,9.4 v 48.2 h -12.6 V 459.9 h 12.6 v 41.2 c 7.1,-5.4 14,-9.4 23.2,-9.4 9.9,0 20.1,5.8 20.1,24.8 v 44.4 z m 73.1,1.4 c -28.5,0 -45.7,-20.2 -45.7,-47.3 0,-27.2 19.4,-48.8 48.2,-48.8 10.8,0 19.3,2.6 24.1,5.4 l -0.2,12.5 c -7.1,-4.4 -13.9,-7 -24,-7 -21.3,0 -34.4,16.4 -34.4,37 0,21.3 12.7,36.7 33.8,36.7 8.1,0 15.8,-2.4 22.4,-5.9 l 3.7,9.8 c -9.4,5.4 -18.8,7.6 -27.9,7.6"
         fill="#99999a"
         id="path703"
         style="fill:#ffffff" />
    </g>
  </g>
</svg>
